<svg width="88" height="99" viewBox="0 0 88 99" fill="none" xmlns="http://www.w3.org/2000/svg">
<g clip-path="url(#clip0_3_39)">
<path d="M44 39.1862C41.9279 39.187 39.9026 39.7925 38.1801 40.9263C36.4576 42.06 35.1153 43.6711 34.3229 45.5558C33.5304 47.4404 33.3235 49.5141 33.7282 51.5145C34.1329 53.5149 35.1311 55.3523 36.5966 56.7943C38.0621 58.2363 39.929 59.2183 41.9613 59.6159C43.9936 60.0135 46.1001 59.8091 48.0144 59.0283C49.9287 58.2476 51.5648 56.9256 52.7159 55.2296C53.867 53.5336 54.4814 51.5397 54.4814 49.5C54.4793 46.7646 53.3743 44.1418 51.4089 42.2079C49.4436 40.2741 46.7788 39.1872 44 39.1862V39.1862ZM68.4966 31.2585C67.9632 29.9279 67.1578 28.7193 66.1302 27.7078C65.1027 26.6963 63.8749 25.9035 62.5232 25.3784C58.3982 23.7755 48.5768 24.1351 44 24.1351C39.4232 24.1351 29.6116 23.7619 25.4748 25.3784C24.1231 25.9035 22.8954 26.6963 21.8678 27.7078C20.8403 28.7193 20.0348 29.9279 19.5014 31.2585C17.875 35.319 18.2384 44.9967 18.2384 49.4981C18.2384 53.9995 17.875 63.6655 19.5093 67.7396C20.0427 69.0702 20.8481 70.2788 21.8757 71.2902C22.9032 72.3017 24.1309 73.0946 25.4827 73.6196C29.6077 75.2226 39.4291 74.863 44.0079 74.863C48.5866 74.863 58.3943 75.2361 62.5311 73.6196C63.8828 73.0946 65.1105 72.3017 66.1381 71.2902C67.1656 70.2788 67.9711 69.0702 68.5045 67.7396C70.1446 63.679 69.7675 54.0014 69.7675 49.5C69.7675 44.9986 70.1446 35.3345 68.5045 31.2604L68.4966 31.2585ZM44 65.3555C40.8143 65.3555 37.7002 64.4256 35.0513 62.6833C32.4025 60.9411 30.3381 58.4648 29.1189 55.5676C27.8998 52.6704 27.5809 49.4824 28.2024 46.4068C28.8238 43.3311 30.3579 40.5059 32.6105 38.2885C34.8632 36.0711 37.7332 34.561 40.8577 33.9492C43.9821 33.3374 47.2207 33.6514 50.1639 34.8515C53.1071 36.0515 55.6227 38.0838 57.3926 40.6912C59.1625 43.2986 60.1071 46.3641 60.1071 49.5C60.1097 51.5829 59.6949 53.6458 58.8863 55.5706C58.0778 57.4955 56.8914 59.2444 55.3952 60.7172C53.899 62.19 52.1224 63.3578 50.167 64.1537C48.2116 64.9496 46.1159 65.358 44 65.3555V65.3555ZM60.7711 36.6803C60.0274 36.6807 59.3003 36.4639 58.6818 36.0575C58.0633 35.6511 57.5811 35.0732 57.2962 34.397C57.0114 33.7208 56.9366 32.9766 57.0815 32.2586C57.2263 31.5405 57.5842 30.8809 58.1099 30.3631C58.6357 29.8454 59.3056 29.4927 60.0349 29.3497C60.7643 29.2068 61.5203 29.28 62.2074 29.56C62.8945 29.8401 63.4818 30.3144 63.895 30.9231C64.3082 31.5317 64.5288 32.2473 64.5288 32.9794C64.5308 33.4655 64.4354 33.9473 64.2479 34.397C64.0604 34.8467 63.7845 35.2556 63.4361 35.6002C63.0878 35.9447 62.6737 36.2182 62.2177 36.4049C61.7617 36.5915 61.2728 36.6878 60.7789 36.688L60.7711 36.6803ZM78.5714 6.1875H9.42857C6.92796 6.1875 4.52976 7.16534 2.76156 8.90592C0.993364 10.6465 0 13.0072 0 15.4688L0 83.5312C0 85.9928 0.993364 88.3535 2.76156 90.0941C4.52976 91.8347 6.92796 92.8125 9.42857 92.8125H78.5714C81.072 92.8125 83.4702 91.8347 85.2384 90.0941C87.0066 88.3535 88 85.9928 88 83.5312V15.4688C88 13.0072 87.0066 10.6465 85.2384 8.90592C83.4702 7.16534 81.072 6.1875 78.5714 6.1875V6.1875ZM75.2086 62.2617C74.9552 67.2175 73.8061 71.6087 70.1309 75.2168C66.4557 78.8249 61.9987 79.9792 56.9702 80.2151C51.7825 80.5032 36.2293 80.5032 31.0416 80.2151C26.0071 79.9657 21.562 78.8326 17.8809 75.2168C14.1998 71.601 13.0429 67.2079 12.8032 62.2617C12.5105 57.1532 12.5105 41.841 12.8032 36.7383C13.0566 31.7825 14.192 27.3913 17.8809 23.7832C21.5698 20.1751 26.0268 19.0343 31.0416 18.7984C36.2293 18.5103 51.7825 18.5103 56.9702 18.7984C62.0046 19.0478 66.4636 20.1809 70.1309 23.7967C73.7982 27.4126 74.9689 31.8057 75.2086 36.7615C75.5012 41.8507 75.5012 57.1493 75.2086 62.2617Z" fill="#FFF9F9"/>
</g>
<defs>
<clipPath id="clip0_3_39">
<rect width="88" height="99" fill="white"/>
</clipPath>
</defs>
</svg>
