<svg width="88" height="88" viewBox="0 0 88 88" fill="none" xmlns="http://www.w3.org/2000/svg">
<g clip-path="url(#clip0_3_41)">
<path d="M44 -0.0935059C19.6872 -0.0935059 -0.0962524 19.6845 -0.0962524 44C-0.0962524 68.3155 19.6872 88.0935 44 88.0935C68.3127 88.0935 88.0962 68.3155 88.0962 44C88.0962 19.6845 68.3127 -0.0935059 44 -0.0935059ZM44 85.1565C21.307 85.1565 2.84625 66.693 2.84625 44C2.84625 21.307 21.307 2.84349 44 2.84349C66.693 2.84349 85.1537 21.307 85.1537 44C85.1537 66.693 66.693 85.1565 44 85.1565Z" fill="#FBF1F1"/>
<path d="M53.625 19.25H46.288C36.9435 19.1565 35.75 24.9397 35.75 31.1987V35.75H31.625C31.4385 35.7251 31.2489 35.7435 31.0707 35.8038C30.8925 35.8641 30.7306 35.9646 30.5976 36.0976C30.4646 36.2306 30.3641 36.3925 30.3038 36.5707C30.2435 36.7489 30.2251 36.9385 30.25 37.125V45.375C30.2251 45.5614 30.2435 45.7511 30.3038 45.9293C30.3641 46.1074 30.4646 46.2693 30.5976 46.4023C30.7306 46.5353 30.8925 46.6359 31.0707 46.6962C31.2489 46.7565 31.4385 46.7749 31.625 46.75H35.75V67.375C35.7271 67.5618 35.7471 67.7513 35.8087 67.9291C35.8702 68.107 35.9716 68.2684 36.105 68.4011C36.2385 68.5337 36.4005 68.6341 36.5787 68.6946C36.7569 68.7551 36.9466 68.774 37.1332 68.75H45.5345C46.3457 68.8435 47.003 68.1862 46.7445 67.375L46.75 46.75H53.625C53.8114 46.7749 54.0011 46.7565 54.1793 46.6962C54.3574 46.6359 54.5193 46.5353 54.6523 46.4023C54.7853 46.2693 54.8859 46.1074 54.9462 45.9293C55.0065 45.7511 55.0249 45.5614 55 45.375V37.125C55.0249 36.9385 55.0065 36.7489 54.9462 36.5707C54.8859 36.3925 54.7853 36.2306 54.6523 36.0976C54.5193 35.9646 54.3574 35.8641 54.1793 35.8038C54.0011 35.7435 53.8114 35.7251 53.625 35.75H46.7417L46.75 31.625C47.0167 29.8677 47.0167 30.1537 48.6475 30.25H53.5672C53.9495 30.1647 54.3565 30.2115 54.6425 29.9337C54.9285 29.656 55.0935 29.2765 54.9972 28.875V20.625C55.0226 20.4387 55.0046 20.2491 54.9447 20.0709C54.8847 19.8927 54.7845 19.7307 54.6516 19.5976C54.5188 19.4645 54.3571 19.3639 54.179 19.3036C54.0009 19.2433 53.8113 19.225 53.625 19.25V19.25ZM52.1537 27.346L48.7052 27.214C44.4345 27.214 44.077 29.5322 44.077 31.9055L44.066 37.1195C44.0656 37.3126 44.1033 37.5038 44.177 37.6823C44.2506 37.8608 44.3587 38.023 44.4951 38.1597C44.6315 38.2963 44.7935 38.4047 44.9719 38.4787C45.1502 38.5527 45.3414 38.5907 45.5345 38.5907H52.25V43.9037H45.54C45.1502 43.9037 44.7764 44.0584 44.5006 44.3337C44.2248 44.609 44.0694 44.9825 44.0687 45.3722L44.066 66H38.5V45.375C38.5 44.5637 37.9472 43.9065 37.1332 43.9065H33V38.5935H37.1332C37.3262 38.5938 37.5173 38.556 37.6957 38.4824C37.874 38.4088 38.0361 38.3008 38.1727 38.1645C38.4477 37.8867 38.4972 37.5127 38.4972 37.1222V31.196C38.4972 25.0305 39.743 22.0935 46.2852 22.0935H52.151V27.346H52.1537Z" fill="#FBF1F1"/>
</g>
<defs>
<clipPath id="clip0_3_41">
<rect width="88" height="88" fill="white"/>
</clipPath>
</defs>
</svg>
